# xmcd CD database file
#
# Track frame offsets:
#	150
#	22663
#	46510
#	69617
#	92416
#	114978
#	139895
#	160245
#	183822
#	206416
#
# Disc length: 3081 seconds
#
# Revision: 0
# Processed by: cddbd v1.5.2PL0 Copyright (c) Steve Scherf et al.
# Submitted via: CDex 1.51
#
DISCID=710c070a
DTITLE=Various Artist - Yearning for Lake
DYEAR=2007
DGENRE=New Age
TTITLE0=Spring doawn by Su Causeway
TTITLE1=Autumn Moon over the Calm Lake
TTITLE2=Lotus in the breeze at Crooked Courtyard
TTITLE3=Twining Peaks kissing the Sky
TTITLE4=Orioles Singing in the Willows
TTITLE5=Viewing Fish at Flower Harbor
TTITLE6=Lingering snow on the Broken Bridge
TTITLE7=Sunset Glow at Leifeng Pagoda
TTITLE8=Evening Bell at Nanping Hill
TTITLE9=Three Pools Mirroring the Moon
EXTD=YEAR: 2007
EXTT0=
EXTT1=
EXTT2=
EXTT3=
EXTT4=
EXTT5=
EXTT6=
EXTT7=
EXTT8=
EXTT9=
PLAYORDER=
